<?xml version="1.0" encoding="UTF-8"?>
<svg xmlns="http://www.w3.org/2000/svg" width="59.151" height="21.289" viewBox="0 0 59.151 21.289"><path d="M30.867,70c-3.849,4.52-7.54,10.126-7.577,14.316a4.96,4.96,0,0,0,1.7,4,8.228,8.228,0,0,0,5.556,2.034c2.784,0,5.548-1.119,7.712-1.985C41.9,86.9,82.192,69.4,82.192,69.4c.389-.195.316-.437-.171-.316-.2.049-43.864,11.883-43.864,11.883a9.649,9.649,0,0,1-2.541.364c-3.356.02-6.342-1.843-6.318-5.768A12.873,12.873,0,0,1,30.867,70Z" transform="translate(-23.29 -69.054)" fill="#8a8aa0" fill-rule="evenodd"/></svg>