<svg xmlns="http://www.w3.org/2000/svg" width="19.063" height="19.057" viewBox="0 0 19.063 19.057"><path d="M1.969-18.375v1.313a7.172,7.172,0,0,1,3.65.984A7.31,7.31,0,0,1,8.2-13.494a7.172,7.172,0,0,1,.984,3.65H10.5A8.353,8.353,0,0,0,9.331-14.15a8.4,8.4,0,0,0-3.056-3.056A8.353,8.353,0,0,0,1.969-18.375Zm-6.788,1.969a1.442,1.442,0,0,0-.964.349L-7.9-13.9l.062-.041A1.966,1.966,0,0,0-8.5-12.879a2.041,2.041,0,0,0,.072,1.23A20.666,20.666,0,0,0-6.891-8.367,20.038,20.038,0,0,0-3.671-4.2,21.246,21.246,0,0,0,3.773.554h.021a2.245,2.245,0,0,0,1.2.082A2.32,2.32,0,0,0,6.07.1L8.142-1.969a1.379,1.379,0,0,0,.41-1.015A1.379,1.379,0,0,0,8.142-4L5.455-6.706a1.391,1.391,0,0,0-1.025-.41,1.391,1.391,0,0,0-1.025.41L2.112-5.394A10.206,10.206,0,0,1-.595-7.229,8.015,8.015,0,0,1-2.42-9.905l1.313-1.312a1.505,1.505,0,0,0,.431-1.077,1.234,1.234,0,0,0-.492-1.015l.062.062-2.748-2.81A1.442,1.442,0,0,0-4.819-16.406Zm6.788.656v1.313a4.5,4.5,0,0,1,2.307.615,4.558,4.558,0,0,1,1.671,1.671,4.5,4.5,0,0,1,.615,2.307H7.875a5.809,5.809,0,0,0-.8-2.974A6.127,6.127,0,0,0,4.942-14.95,5.809,5.809,0,0,0,1.969-15.75Zm-6.788.656a.253.253,0,0,1,.144.062l2.687,2.748a.142.142,0,0,1-.041.144l-1.948,1.928.144.41.267.574A11.008,11.008,0,0,0-2.81-7.875,7.98,7.98,0,0,0-1.5-6.3,11.479,11.479,0,0,0,.82-4.573,8.9,8.9,0,0,0,1.969-4l.41.185L4.368-5.8q.041-.041.062-.041t.062.041L7.26-3.035q.041.041.041.051t-.041.051L5.209-.9A.945.945,0,0,1,4.225-.7a19.676,19.676,0,0,1-6.973-4.43A19.5,19.5,0,0,1-5.763-9.044,17.408,17.408,0,0,1-7.2-12.1v-.021a.679.679,0,0,1-.021-.441.745.745,0,0,1,.226-.4l2.03-2.071A.2.2,0,0,1-4.819-15.094Zm6.788,1.969v1.313a1.9,1.9,0,0,1,1.395.574,1.9,1.9,0,0,1,.574,1.395H5.25a3.21,3.21,0,0,0-.441-1.641,3.258,3.258,0,0,0-1.2-1.2A3.21,3.21,0,0,0,1.969-13.125Z" transform="translate(8.563 18.375)" fill="#fad55b"/></svg>