<svg xmlns="http://www.w3.org/2000/svg" xmlns:xlink="http://www.w3.org/1999/xlink" width="300" zoomAndPan="magnify" viewBox="0 0 224.87999 93.749996" height="125" preserveAspectRatio="xMidYMid meet" version="1.0"><defs><g/><clipPath id="3c1f8671d2"><path d="M 4.230469 10.46875 L 51.351562 10.46875 L 51.351562 75.535156 L 4.230469 75.535156 Z M 4.230469 10.46875 " clip-rule="nonzero"/></clipPath></defs><g clip-path="url(#3c1f8671d2)"><path fill="#ffce00" d="M 27.972656 75.839844 C 28.949219 75.839844 30.476562 74.214844 32.8125 71.574219 C 40.113281 63.3125 51.714844 47.933594 51.714844 34.210938 C 51.714844 21.097656 41.085938 10.46875 27.972656 10.46875 C 14.859375 10.46875 4.230469 21.097656 4.230469 34.210938 C 4.230469 47.933594 15.832031 63.3125 23.132812 71.574219 C 25.46875 74.214844 26.996094 75.839844 27.972656 75.839844 " fill-opacity="1" fill-rule="nonzero"/></g><path fill="#ffffff" d="M 6.484375 32.601562 C 6.007812 32.539062 5.671875 32.101562 5.734375 31.625 C 6.960938 22.394531 13.570312 14.894531 22.574219 12.519531 C 23.042969 12.398438 23.515625 12.675781 23.640625 13.140625 C 23.761719 13.605469 23.484375 14.082031 23.019531 14.207031 C 14.699219 16.398438 8.59375 23.328125 7.460938 31.855469 C 7.398438 32.332031 6.960938 32.667969 6.484375 32.601562 " fill-opacity="1" fill-rule="nonzero"/><path fill="#ffffff" d="M 26 13.683594 C 25.5625 13.683594 25.183594 13.351562 25.136719 12.902344 C 25.085938 12.425781 25.433594 11.996094 25.910156 11.945312 C 27.222656 11.808594 28.5625 11.785156 29.882812 11.875 C 30.363281 11.90625 30.726562 12.324219 30.695312 12.804688 C 30.660156 13.285156 30.238281 13.644531 29.765625 13.613281 C 28.542969 13.527344 27.304688 13.550781 26.09375 13.679688 C 26.0625 13.683594 26.03125 13.683594 26 13.683594 " fill-opacity="1" fill-rule="nonzero"/><path fill="#ffffff" d="M 45.503906 34.113281 C 45.503906 43.792969 37.652344 51.644531 27.972656 51.644531 C 18.289062 51.644531 10.441406 43.792969 10.441406 34.113281 C 10.441406 24.429688 18.289062 16.582031 27.972656 16.582031 C 37.652344 16.582031 45.503906 24.429688 45.503906 34.113281 " fill-opacity="1" fill-rule="nonzero"/><path fill="#ffbe0d" d="M 21.511719 27.707031 C 21.578125 27.5 21.78125 27.355469 22.003906 27.355469 L 33.9375 27.355469 C 34.164062 27.355469 34.367188 27.5 34.433594 27.707031 L 35.75 31.929688 C 35.292969 31.855469 33.269531 31.582031 28.511719 31.582031 L 27.429688 31.582031 C 22.675781 31.582031 20.648438 31.855469 20.191406 31.929688 Z M 39.65625 38.957031 C 39.578125 37.382812 39.414062 36.082031 39.296875 35.234375 C 39.144531 34.105469 38.589844 33.183594 37.8125 32.605469 L 38.695312 32.605469 C 39.097656 32.605469 39.421875 32.296875 39.421875 31.914062 L 39.421875 31.117188 C 39.421875 30.734375 39.097656 30.425781 38.695312 30.425781 L 36.734375 30.425781 L 35.765625 27.324219 C 35.527344 26.5625 34.773438 26.027344 33.9375 26.027344 L 31.304688 26.027344 L 31.304688 24.976562 C 31.304688 24.328125 30.75 23.800781 30.066406 23.800781 L 25.875 23.800781 C 25.191406 23.800781 24.640625 24.328125 24.640625 24.976562 L 24.640625 26.027344 L 22.003906 26.027344 C 21.167969 26.027344 20.417969 26.5625 20.179688 27.328125 L 19.210938 30.425781 L 17.246094 30.425781 C 16.847656 30.425781 16.523438 30.734375 16.523438 31.117188 L 16.523438 31.914062 C 16.523438 32.296875 16.847656 32.605469 17.246094 32.605469 L 18.132812 32.605469 C 17.355469 33.183594 16.796875 34.105469 16.644531 35.234375 C 16.53125 36.082031 16.367188 37.382812 16.285156 38.957031 C 16.261719 39.492188 16.421875 40.019531 16.800781 40.417969 C 17.113281 40.742188 17.53125 40.949219 17.984375 41.011719 L 17.984375 42.972656 C 17.984375 43.519531 18.449219 43.960938 19.019531 43.960938 L 20.933594 43.960938 C 21.507812 43.960938 21.972656 43.519531 21.972656 42.972656 L 21.972656 41.035156 L 33.972656 41.035156 L 33.972656 42.972656 C 33.972656 43.519531 34.4375 43.960938 35.007812 43.960938 L 36.921875 43.960938 C 37.496094 43.960938 37.960938 43.519531 37.960938 42.972656 L 37.960938 41.011719 C 38.410156 40.949219 38.828125 40.742188 39.140625 40.417969 C 39.523438 40.019531 39.683594 39.492188 39.65625 38.957031 " fill-opacity="1" fill-rule="nonzero"/><path fill="#ffffff" d="M 20.972656 35.085938 C 21.632812 35.746094 21.632812 36.820312 20.972656 37.480469 C 20.308594 38.144531 19.234375 38.144531 18.574219 37.480469 C 17.910156 36.820312 17.910156 35.746094 18.574219 35.085938 C 19.234375 34.421875 20.308594 34.421875 20.972656 35.085938 " fill-opacity="1" fill-rule="nonzero"/><path fill="#ffffff" d="M 33.175781 35.589844 L 22.765625 35.589844 C 22.511719 35.589844 22.304688 35.390625 22.304688 35.148438 C 22.304688 34.902344 22.511719 34.707031 22.765625 34.707031 L 33.175781 34.707031 C 33.433594 34.707031 33.640625 34.902344 33.640625 35.148438 C 33.640625 35.390625 33.433594 35.589844 33.175781 35.589844 " fill-opacity="1" fill-rule="nonzero"/><path fill="#ffffff" d="M 31.605469 37.277344 L 24.339844 37.277344 C 24.082031 37.277344 23.875 37.078125 23.875 36.835938 C 23.875 36.589844 24.082031 36.394531 24.339844 36.394531 L 31.605469 36.394531 C 31.863281 36.394531 32.070312 36.589844 32.070312 36.835938 C 32.070312 37.078125 31.863281 37.277344 31.605469 37.277344 " fill-opacity="1" fill-rule="nonzero"/><path fill="#ffffff" d="M 24.570312 39.910156 L 24.570312 38.53125 L 31.375 38.53125 L 31.375 39.910156 L 24.570312 39.910156 " fill-opacity="1" fill-rule="nonzero"/><path fill="#ffffff" d="M 37.378906 35.085938 C 38.042969 35.746094 38.042969 36.820312 37.378906 37.480469 C 36.71875 38.144531 35.644531 38.144531 34.984375 37.480469 C 34.320312 36.820312 34.320312 35.746094 34.984375 35.085938 C 35.644531 34.421875 36.71875 34.421875 37.378906 35.085938 " fill-opacity="1" fill-rule="nonzero"/><g fill="#f6f5f5" fill-opacity="1"><g transform="translate(56.555429, 35.410898)"><g><path d="M 4.921875 -19.671875 L 7.640625 -5.953125 L 7.703125 -5.953125 L 10.734375 -19.671875 L 15.859375 -19.671875 L 12.09375 -4.8125 C 11.820312 -3.738281 11.546875 -2.867188 11.265625 -2.203125 C 10.984375 -1.535156 10.675781 -1.015625 10.34375 -0.640625 C 10.007812 -0.265625 9.613281 -0.0078125 9.15625 0.125 C 8.707031 0.269531 8.1875 0.34375 7.59375 0.34375 C 6.988281 0.34375 6.46875 0.257812 6.03125 0.09375 C 5.59375 -0.0625 5.203125 -0.328125 4.859375 -0.703125 C 4.523438 -1.078125 4.226562 -1.570312 3.96875 -2.1875 C 3.71875 -2.8125 3.488281 -3.59375 3.28125 -4.53125 L -0.21875 -19.671875 Z M 4.921875 -19.671875 "/></g></g></g><g fill="#f6f5f5" fill-opacity="1"><g transform="translate(72.178912, 35.410898)"><g><path d="M 16.015625 0 L 11.53125 0 L 11.53125 -6.40625 C 11.53125 -7.53125 11.265625 -8.390625 10.734375 -8.984375 C 10.210938 -9.585938 9.414062 -9.890625 8.34375 -9.890625 C 7.9375 -9.890625 7.546875 -9.8125 7.171875 -9.65625 C 6.796875 -9.5 6.46875 -9.285156 6.1875 -9.015625 C 5.90625 -8.753906 5.675781 -8.441406 5.5 -8.078125 C 5.332031 -7.710938 5.25 -7.328125 5.25 -6.921875 C 5.25 -5.960938 5.535156 -5.195312 6.109375 -4.625 C 6.679688 -4.050781 7.398438 -3.765625 8.265625 -3.765625 C 8.671875 -3.765625 9.050781 -3.800781 9.40625 -3.875 C 9.769531 -3.945312 10.101562 -4.039062 10.40625 -4.15625 L 10.40625 -0.453125 C 9.96875 -0.148438 9.503906 0.0546875 9.015625 0.171875 C 8.535156 0.285156 7.984375 0.34375 7.359375 0.34375 C 6.515625 0.34375 5.691406 0.171875 4.890625 -0.171875 C 4.097656 -0.523438 3.398438 -1.015625 2.796875 -1.640625 C 2.191406 -2.273438 1.703125 -3.023438 1.328125 -3.890625 C 0.953125 -4.765625 0.765625 -5.734375 0.765625 -6.796875 C 0.765625 -7.816406 0.953125 -8.757812 1.328125 -9.625 C 1.703125 -10.5 2.210938 -11.257812 2.859375 -11.90625 C 3.515625 -12.550781 4.300781 -13.0625 5.21875 -13.4375 C 6.144531 -13.8125 7.160156 -14 8.265625 -14 C 9.441406 -14 10.507812 -13.832031 11.46875 -13.5 C 12.425781 -13.175781 13.238281 -12.722656 13.90625 -12.140625 C 14.582031 -11.554688 15.101562 -10.863281 15.46875 -10.0625 C 15.832031 -9.269531 16.015625 -8.410156 16.015625 -7.484375 Z M 16.015625 0 "/></g></g></g><g fill="#f6f5f5" fill-opacity="1"><g transform="translate(89.347873, 35.410898)"><g><path d="M 6.46875 -17.453125 C 6.46875 -16.722656 6.21875 -16.113281 5.71875 -15.625 C 5.21875 -15.132812 4.613281 -14.890625 3.90625 -14.890625 C 3.195312 -14.890625 2.59375 -15.132812 2.09375 -15.625 C 1.59375 -16.113281 1.34375 -16.722656 1.34375 -17.453125 C 1.34375 -18.179688 1.59375 -18.789062 2.09375 -19.28125 C 2.59375 -19.769531 3.195312 -20.015625 3.90625 -20.015625 C 4.613281 -20.015625 5.21875 -19.769531 5.71875 -19.28125 C 6.21875 -18.789062 6.46875 -18.179688 6.46875 -17.453125 Z M 6.15625 -13.65625 L 6.15625 0 L 1.65625 0 L 1.65625 -13.65625 Z M 6.15625 -13.65625 "/></g></g></g><g fill="#f6f5f5" fill-opacity="1"><g transform="translate(97.159615, 35.410898)"><g><path d="M 9.5 -13.65625 L 9.5 -10 L 5.9375 -10 C 5.726562 -10 5.53125 -9.9375 5.34375 -9.8125 C 5.15625 -9.695312 5.0625 -9.546875 5.0625 -9.359375 C 5.0625 -9.054688 5.625 -8.679688 6.75 -8.234375 C 7.875 -7.785156 8.75 -7.25 9.375 -6.625 C 10 -6.007812 10.3125 -5.234375 10.3125 -4.296875 C 10.3125 -2.878906 9.898438 -1.804688 9.078125 -1.078125 C 8.253906 -0.359375 7.140625 0 5.734375 0 L 0.59375 0 L 0.59375 -3.828125 L 4.96875 -3.828125 C 5.175781 -3.828125 5.347656 -3.875 5.484375 -3.96875 C 5.628906 -4.070312 5.703125 -4.226562 5.703125 -4.4375 C 5.703125 -4.6875 5.5625 -4.875 5.28125 -5 C 5 -5.132812 4.585938 -5.3125 4.046875 -5.53125 C 3.523438 -5.757812 3.054688 -5.992188 2.640625 -6.234375 C 2.234375 -6.484375 1.890625 -6.769531 1.609375 -7.09375 C 1.328125 -7.425781 1.109375 -7.804688 0.953125 -8.234375 C 0.804688 -8.660156 0.734375 -9.175781 0.734375 -9.78125 C 0.734375 -10.382812 0.847656 -10.921875 1.078125 -11.390625 C 1.316406 -11.867188 1.632812 -12.273438 2.03125 -12.609375 C 2.4375 -12.953125 2.894531 -13.210938 3.40625 -13.390625 C 3.925781 -13.566406 4.46875 -13.65625 5.03125 -13.65625 Z M 9.5 -13.65625 "/></g></g></g><g fill="#f6f5f5" fill-opacity="1"><g transform="translate(108.090429, 35.410898)"><g><path d="M 5.484375 -19.671875 L 5.484375 -13.265625 C 5.890625 -13.472656 6.296875 -13.644531 6.703125 -13.78125 C 7.109375 -13.925781 7.570312 -14 8.09375 -14 C 8.882812 -14 9.585938 -13.859375 10.203125 -13.578125 C 10.816406 -13.296875 11.332031 -12.914062 11.75 -12.4375 C 12.175781 -11.957031 12.503906 -11.40625 12.734375 -10.78125 C 12.960938 -10.15625 13.078125 -9.492188 13.078125 -8.796875 L 13.078125 0 L 8.578125 0 L 8.578125 -8.015625 C 8.578125 -8.554688 8.429688 -8.96875 8.140625 -9.25 C 7.847656 -9.53125 7.476562 -9.671875 7.03125 -9.671875 C 6.582031 -9.671875 6.210938 -9.53125 5.921875 -9.25 C 5.628906 -8.96875 5.484375 -8.554688 5.484375 -8.015625 L 5.484375 0 L 0.984375 0 L 0.984375 -19.671875 Z M 5.484375 -19.671875 "/></g></g></g><g fill="#f6f5f5" fill-opacity="1"><g transform="translate(122.140318, 35.410898)"><g><path d="M 12.90625 0 L 8.578125 0 L 8.578125 -7.90625 C 8.578125 -8.425781 8.441406 -8.859375 8.171875 -9.203125 C 7.910156 -9.546875 7.53125 -9.71875 7.03125 -9.71875 C 6.519531 -9.71875 6.132812 -9.546875 5.875 -9.203125 C 5.613281 -8.859375 5.484375 -8.425781 5.484375 -7.90625 L 5.484375 0 L 1.15625 0 L 1.15625 -7.921875 C 1.15625 -8.804688 1.285156 -9.617188 1.546875 -10.359375 C 1.804688 -11.097656 2.1875 -11.738281 2.6875 -12.28125 C 3.195312 -12.820312 3.8125 -13.242188 4.53125 -13.546875 C 5.257812 -13.847656 6.09375 -14 7.03125 -14 C 7.96875 -14 8.800781 -13.84375 9.53125 -13.53125 C 10.257812 -13.226562 10.867188 -12.804688 11.359375 -12.265625 C 11.859375 -11.734375 12.238281 -11.09375 12.5 -10.34375 C 12.769531 -9.59375 12.90625 -8.785156 12.90625 -7.921875 Z M 12.90625 0 "/></g></g></g><g fill="#f6f5f5" fill-opacity="1"><g transform="translate(136.190206, 35.410898)"><g><path d="M 14.875 -6.828125 C 14.875 -5.867188 14.6875 -4.957031 14.3125 -4.09375 C 13.9375 -3.238281 13.425781 -2.476562 12.78125 -1.8125 C 12.132812 -1.144531 11.382812 -0.617188 10.53125 -0.234375 C 9.675781 0.148438 8.769531 0.34375 7.8125 0.34375 C 6.851562 0.34375 5.945312 0.148438 5.09375 -0.234375 C 4.25 -0.617188 3.503906 -1.144531 2.859375 -1.8125 C 2.210938 -2.476562 1.703125 -3.238281 1.328125 -4.09375 C 0.953125 -4.957031 0.765625 -5.867188 0.765625 -6.828125 C 0.765625 -7.785156 0.953125 -8.691406 1.328125 -9.546875 C 1.703125 -10.410156 2.210938 -11.171875 2.859375 -11.828125 C 3.503906 -12.484375 4.25 -13.007812 5.09375 -13.40625 C 5.945312 -13.800781 6.851562 -14 7.8125 -14 C 8.789062 -14 9.703125 -13.800781 10.546875 -13.40625 C 11.398438 -13.007812 12.144531 -12.476562 12.78125 -11.8125 C 13.425781 -11.15625 13.9375 -10.394531 14.3125 -9.53125 C 14.6875 -8.664062 14.875 -7.765625 14.875 -6.828125 Z M 7.8125 -3.9375 C 8.207031 -3.9375 8.570312 -4.015625 8.90625 -4.171875 C 9.25 -4.328125 9.539062 -4.539062 9.78125 -4.8125 C 10.019531 -5.09375 10.207031 -5.40625 10.34375 -5.75 C 10.476562 -6.09375 10.546875 -6.453125 10.546875 -6.828125 C 10.546875 -7.203125 10.476562 -7.5625 10.34375 -7.90625 C 10.207031 -8.257812 10.019531 -8.570312 9.78125 -8.84375 C 9.550781 -9.113281 9.265625 -9.328125 8.921875 -9.484375 C 8.578125 -9.640625 8.195312 -9.71875 7.78125 -9.71875 C 7.394531 -9.71875 7.035156 -9.640625 6.703125 -9.484375 C 6.378906 -9.328125 6.09375 -9.113281 5.84375 -8.84375 C 5.601562 -8.570312 5.414062 -8.257812 5.28125 -7.90625 C 5.15625 -7.5625 5.09375 -7.203125 5.09375 -6.828125 C 5.09375 -6.453125 5.15625 -6.09375 5.28125 -5.75 C 5.414062 -5.40625 5.601562 -5.09375 5.84375 -4.8125 C 6.09375 -4.539062 6.382812 -4.328125 6.71875 -4.171875 C 7.050781 -4.015625 7.414062 -3.9375 7.8125 -3.9375 Z M 7.8125 -3.9375 "/></g></g></g><g fill="#f6f5f5" fill-opacity="1"><g transform="translate(151.813689, 35.410898)"><g/></g></g><g fill="#f6f5f5" fill-opacity="1"><g transform="translate(159.62543, 35.410898)"><g><path d="M 12.28125 -19.671875 L 12.28125 -14.953125 L 8.6875 -14.953125 L 8.6875 0 L 3.796875 0 L 3.796875 -14.953125 L 0.203125 -14.953125 L 0.203125 -19.671875 Z M 12.28125 -19.671875 "/></g></g></g><g fill="#f6f5f5" fill-opacity="1"><g transform="translate(172.101738, 35.410898)"><g><path d="M 14.875 -6.828125 C 14.875 -5.867188 14.6875 -4.957031 14.3125 -4.09375 C 13.9375 -3.238281 13.425781 -2.476562 12.78125 -1.8125 C 12.132812 -1.144531 11.382812 -0.617188 10.53125 -0.234375 C 9.675781 0.148438 8.769531 0.34375 7.8125 0.34375 C 6.851562 0.34375 5.945312 0.148438 5.09375 -0.234375 C 4.25 -0.617188 3.503906 -1.144531 2.859375 -1.8125 C 2.210938 -2.476562 1.703125 -3.238281 1.328125 -4.09375 C 0.953125 -4.957031 0.765625 -5.867188 0.765625 -6.828125 C 0.765625 -7.785156 0.953125 -8.691406 1.328125 -9.546875 C 1.703125 -10.410156 2.210938 -11.171875 2.859375 -11.828125 C 3.503906 -12.484375 4.25 -13.007812 5.09375 -13.40625 C 5.945312 -13.800781 6.851562 -14 7.8125 -14 C 8.789062 -14 9.703125 -13.800781 10.546875 -13.40625 C 11.398438 -13.007812 12.144531 -12.476562 12.78125 -11.8125 C 13.425781 -11.15625 13.9375 -10.394531 14.3125 -9.53125 C 14.6875 -8.664062 14.875 -7.765625 14.875 -6.828125 Z M 7.8125 -3.9375 C 8.207031 -3.9375 8.570312 -4.015625 8.90625 -4.171875 C 9.25 -4.328125 9.539062 -4.539062 9.78125 -4.8125 C 10.019531 -5.09375 10.207031 -5.40625 10.34375 -5.75 C 10.476562 -6.09375 10.546875 -6.453125 10.546875 -6.828125 C 10.546875 -7.203125 10.476562 -7.5625 10.34375 -7.90625 C 10.207031 -8.257812 10.019531 -8.570312 9.78125 -8.84375 C 9.550781 -9.113281 9.265625 -9.328125 8.921875 -9.484375 C 8.578125 -9.640625 8.195312 -9.71875 7.78125 -9.71875 C 7.394531 -9.71875 7.035156 -9.640625 6.703125 -9.484375 C 6.378906 -9.328125 6.09375 -9.113281 5.84375 -8.84375 C 5.601562 -8.570312 5.414062 -8.257812 5.28125 -7.90625 C 5.15625 -7.5625 5.09375 -7.203125 5.09375 -6.828125 C 5.09375 -6.453125 5.15625 -6.09375 5.28125 -5.75 C 5.414062 -5.40625 5.601562 -5.09375 5.84375 -4.8125 C 6.09375 -4.539062 6.382812 -4.328125 6.71875 -4.171875 C 7.050781 -4.015625 7.414062 -3.9375 7.8125 -3.9375 Z M 7.8125 -3.9375 "/></g></g></g><g fill="#f6f5f5" fill-opacity="1"><g transform="translate(187.725221, 35.410898)"><g><path d="M 5.484375 -13.65625 L 5.484375 -5.765625 C 5.484375 -5.234375 5.613281 -4.796875 5.875 -4.453125 C 6.132812 -4.109375 6.519531 -3.9375 7.03125 -3.9375 C 7.53125 -3.9375 7.910156 -4.109375 8.171875 -4.453125 C 8.441406 -4.796875 8.578125 -5.234375 8.578125 -5.765625 L 8.578125 -13.65625 L 12.90625 -13.65625 L 12.90625 -5.734375 C 12.90625 -4.847656 12.769531 -4.035156 12.5 -3.296875 C 12.238281 -2.554688 11.859375 -1.921875 11.359375 -1.390625 C 10.867188 -0.859375 10.257812 -0.4375 9.53125 -0.125 C 8.800781 0.1875 7.96875 0.34375 7.03125 0.34375 C 6.09375 0.34375 5.253906 0.191406 4.515625 -0.109375 C 3.785156 -0.410156 3.171875 -0.832031 2.671875 -1.375 C 2.179688 -1.914062 1.804688 -2.554688 1.546875 -3.296875 C 1.285156 -4.035156 1.15625 -4.847656 1.15625 -5.734375 L 1.15625 -13.65625 Z M 5.484375 -13.65625 "/></g></g></g><g fill="#f6f5f5" fill-opacity="1"><g transform="translate(201.775109, 35.410898)"><g><path d="M 4.953125 -13.65625 L 4.953125 -11.390625 L 5 -11.390625 C 5.28125 -12.210938 5.707031 -12.796875 6.28125 -13.140625 C 6.851562 -13.484375 7.738281 -13.65625 8.9375 -13.65625 L 8.9375 -9.5625 C 8.207031 -9.5 7.617188 -9.425781 7.171875 -9.34375 C 6.734375 -9.257812 6.394531 -9.113281 6.15625 -8.90625 C 5.914062 -8.695312 5.75 -8.40625 5.65625 -8.03125 C 5.570312 -7.664062 5.53125 -7.171875 5.53125 -6.546875 L 5.53125 0 L 1.046875 0 L 1.046875 -13.65625 Z M 4.953125 -13.65625 "/></g></g></g><g fill="#f6f5f5" fill-opacity="1"><g transform="translate(211.132343, 35.410898)"><g><path d="M 9.5 -13.65625 L 9.5 -10 L 5.9375 -10 C 5.726562 -10 5.53125 -9.9375 5.34375 -9.8125 C 5.15625 -9.695312 5.0625 -9.546875 5.0625 -9.359375 C 5.0625 -9.054688 5.625 -8.679688 6.75 -8.234375 C 7.875 -7.785156 8.75 -7.25 9.375 -6.625 C 10 -6.007812 10.3125 -5.234375 10.3125 -4.296875 C 10.3125 -2.878906 9.898438 -1.804688 9.078125 -1.078125 C 8.253906 -0.359375 7.140625 0 5.734375 0 L 0.59375 0 L 0.59375 -3.828125 L 4.96875 -3.828125 C 5.175781 -3.828125 5.347656 -3.875 5.484375 -3.96875 C 5.628906 -4.070312 5.703125 -4.226562 5.703125 -4.4375 C 5.703125 -4.6875 5.5625 -4.875 5.28125 -5 C 5 -5.132812 4.585938 -5.3125 4.046875 -5.53125 C 3.523438 -5.757812 3.054688 -5.992188 2.640625 -6.234375 C 2.234375 -6.484375 1.890625 -6.769531 1.609375 -7.09375 C 1.328125 -7.425781 1.109375 -7.804688 0.953125 -8.234375 C 0.804688 -8.660156 0.734375 -9.175781 0.734375 -9.78125 C 0.734375 -10.382812 0.847656 -10.921875 1.078125 -11.390625 C 1.316406 -11.867188 1.632812 -12.273438 2.03125 -12.609375 C 2.4375 -12.953125 2.894531 -13.210938 3.40625 -13.390625 C 3.925781 -13.566406 4.46875 -13.65625 5.03125 -13.65625 Z M 9.5 -13.65625 "/></g></g></g><g fill="#f6f5f5" fill-opacity="1"><g transform="translate(62.940634, 72.293892)"><g><path d="M 2.421875 -26.421875 L 4 -26.421875 L 4 -8 C 4 -7 4.164062 -6.066406 4.5 -5.203125 C 4.84375 -4.347656 5.335938 -3.601562 5.984375 -2.96875 C 6.628906 -2.34375 7.414062 -1.851562 8.34375 -1.5 C 9.269531 -1.15625 10.328125 -0.984375 11.515625 -0.984375 C 12.671875 -0.984375 13.710938 -1.15625 14.640625 -1.5 C 15.578125 -1.851562 16.367188 -2.335938 17.015625 -2.953125 C 17.671875 -3.578125 18.171875 -4.316406 18.515625 -5.171875 C 18.859375 -6.023438 19.03125 -6.96875 19.03125 -8 L 19.03125 -26.421875 L 20.609375 -26.421875 L 20.609375 -8.5 C 20.609375 -7.082031 20.394531 -5.828125 19.96875 -4.734375 C 19.539062 -3.640625 18.929688 -2.703125 18.140625 -1.921875 C 17.347656 -1.140625 16.390625 -0.546875 15.265625 -0.140625 C 14.148438 0.253906 12.898438 0.453125 11.515625 0.453125 C 10.128906 0.453125 8.875 0.242188 7.75 -0.171875 C 6.632812 -0.585938 5.679688 -1.1875 4.890625 -1.96875 C 4.097656 -2.75 3.488281 -3.691406 3.0625 -4.796875 C 2.632812 -5.898438 2.421875 -7.144531 2.421875 -8.53125 Z M 2.421875 -26.421875 "/></g></g></g><g fill="#f6f5f5" fill-opacity="1"><g transform="translate(86.006397, 72.293892)"><g><path d="M 8.234375 -26.421875 C 9.992188 -26.421875 11.671875 -26.09375 13.265625 -25.4375 C 14.867188 -24.789062 16.285156 -23.878906 17.515625 -22.703125 C 18.742188 -21.535156 19.722656 -20.144531 20.453125 -18.53125 C 21.191406 -16.925781 21.5625 -15.15625 21.5625 -13.21875 C 21.5625 -11.25 21.238281 -9.453125 20.59375 -7.828125 C 19.945312 -6.203125 19.070312 -4.8125 17.96875 -3.65625 C 16.863281 -2.5 15.5625 -1.597656 14.0625 -0.953125 C 12.5625 -0.316406 10.957031 0 9.25 0 L 5.328125 0 L 5.328125 -1.4375 L 9.140625 -1.4375 C 10.722656 -1.4375 12.175781 -1.75 13.5 -2.375 C 14.820312 -3.007812 15.953125 -3.859375 16.890625 -4.921875 C 17.835938 -5.992188 18.570312 -7.238281 19.09375 -8.65625 C 19.625 -10.082031 19.890625 -11.601562 19.890625 -13.21875 C 19.890625 -14.894531 19.566406 -16.453125 18.921875 -17.890625 C 18.285156 -19.328125 17.421875 -20.570312 16.328125 -21.625 C 15.234375 -22.6875 13.941406 -23.507812 12.453125 -24.09375 C 10.972656 -24.6875 9.398438 -24.984375 7.734375 -24.984375 L 4 -24.984375 L 4 0 L 2.421875 0 L 2.421875 -26.421875 Z M 8.234375 -26.421875 "/></g></g></g><g fill="#f6f5f5" fill-opacity="1"><g transform="translate(109.07216, 72.293892)"><g><path d="M 20.609375 0 L 19.03125 0 L 19.03125 -12.90625 L 5.515625 -12.90625 L 5.515625 -14.265625 L 19.03125 -14.265625 L 19.03125 -18.421875 C 19.03125 -19.398438 18.863281 -20.316406 18.53125 -21.171875 C 18.207031 -22.035156 17.722656 -22.78125 17.078125 -23.40625 C 16.441406 -24.03125 15.65625 -24.523438 14.71875 -24.890625 C 13.789062 -25.253906 12.722656 -25.4375 11.515625 -25.4375 C 10.304688 -25.4375 9.234375 -25.253906 8.296875 -24.890625 C 7.367188 -24.523438 6.582031 -24.03125 5.9375 -23.40625 C 5.300781 -22.78125 4.816406 -22.035156 4.484375 -21.171875 C 4.160156 -20.316406 4 -19.398438 4 -18.421875 L 4 0 L 2.421875 0 L 2.421875 -17.9375 C 2.421875 -19.3125 2.632812 -20.546875 3.0625 -21.640625 C 3.488281 -22.742188 4.09375 -23.679688 4.875 -24.453125 C 5.65625 -25.234375 6.601562 -25.832031 7.71875 -26.25 C 8.84375 -26.664062 10.109375 -26.875 11.515625 -26.875 C 12.921875 -26.875 14.191406 -26.660156 15.328125 -26.234375 C 16.460938 -25.804688 17.414062 -25.207031 18.1875 -24.4375 C 18.96875 -23.675781 19.566406 -22.738281 19.984375 -21.625 C 20.398438 -20.519531 20.609375 -19.289062 20.609375 -17.9375 Z M 20.609375 0 "/></g></g></g><g fill="#f6f5f5" fill-opacity="1"><g transform="translate(132.137923, 72.293892)"><g><path d="M 3.390625 -26.421875 L 4.984375 -26.421875 L 4.984375 0 L 3.390625 0 Z M 3.390625 -26.421875 "/></g></g></g><g fill="#f6f5f5" fill-opacity="1"><g transform="translate(140.518604, 72.293892)"><g><path d="M 18.5 -18.765625 C 18.5 -17.484375 18.289062 -16.34375 17.875 -15.34375 C 17.457031 -14.351562 16.882812 -13.503906 16.15625 -12.796875 C 15.425781 -12.085938 14.578125 -11.550781 13.609375 -11.1875 C 12.640625 -10.820312 11.613281 -10.640625 10.53125 -10.640625 L 5.25 -10.640625 L 5.25 -12.078125 L 10.5 -12.078125 C 11.425781 -12.078125 12.28125 -12.234375 13.0625 -12.546875 C 13.84375 -12.867188 14.515625 -13.320312 15.078125 -13.90625 C 15.648438 -14.5 16.085938 -15.203125 16.390625 -16.015625 C 16.691406 -16.835938 16.84375 -17.753906 16.84375 -18.765625 C 16.84375 -19.742188 16.691406 -20.644531 16.390625 -21.46875 C 16.085938 -22.300781 15.65625 -23.007812 15.09375 -23.59375 C 14.539062 -24.175781 13.863281 -24.628906 13.0625 -24.953125 C 12.257812 -25.273438 11.363281 -25.4375 10.375 -25.4375 C 9.425781 -25.4375 8.546875 -25.265625 7.734375 -24.921875 C 6.929688 -24.585938 6.238281 -24.144531 5.65625 -23.59375 C 5.082031 -23.039062 4.632812 -22.390625 4.3125 -21.640625 C 4 -20.898438 3.84375 -20.140625 3.84375 -19.359375 L 3.84375 0 L 2.265625 0 L 2.265625 -19.21875 C 2.265625 -20.269531 2.445312 -21.253906 2.8125 -22.171875 C 3.175781 -23.097656 3.707031 -23.910156 4.40625 -24.609375 C 5.113281 -25.316406 5.960938 -25.867188 6.953125 -26.265625 C 7.953125 -26.671875 9.09375 -26.875 10.375 -26.875 C 11.582031 -26.875 12.691406 -26.675781 13.703125 -26.28125 C 14.710938 -25.894531 15.566406 -25.34375 16.265625 -24.625 C 16.972656 -23.914062 17.519531 -23.0625 17.90625 -22.0625 C 18.300781 -21.070312 18.5 -19.972656 18.5 -18.765625 Z M 18.5 -18.765625 "/></g></g></g><g fill="#f6f5f5" fill-opacity="1"><g transform="translate(159.394026, 72.293892)"><g><path d="M 2.421875 -26.421875 L 4 -26.421875 L 4 -8 C 4 -7 4.164062 -6.066406 4.5 -5.203125 C 4.84375 -4.347656 5.335938 -3.601562 5.984375 -2.96875 C 6.628906 -2.34375 7.414062 -1.851562 8.34375 -1.5 C 9.269531 -1.15625 10.328125 -0.984375 11.515625 -0.984375 C 12.671875 -0.984375 13.710938 -1.15625 14.640625 -1.5 C 15.578125 -1.851562 16.367188 -2.335938 17.015625 -2.953125 C 17.671875 -3.578125 18.171875 -4.316406 18.515625 -5.171875 C 18.859375 -6.023438 19.03125 -6.96875 19.03125 -8 L 19.03125 -26.421875 L 20.609375 -26.421875 L 20.609375 -8.5 C 20.609375 -7.082031 20.394531 -5.828125 19.96875 -4.734375 C 19.539062 -3.640625 18.929688 -2.703125 18.140625 -1.921875 C 17.347656 -1.140625 16.390625 -0.546875 15.265625 -0.140625 C 14.148438 0.253906 12.898438 0.453125 11.515625 0.453125 C 10.128906 0.453125 8.875 0.242188 7.75 -0.171875 C 6.632812 -0.585938 5.679688 -1.1875 4.890625 -1.96875 C 4.097656 -2.75 3.488281 -3.691406 3.0625 -4.796875 C 2.632812 -5.898438 2.421875 -7.144531 2.421875 -8.53125 Z M 2.421875 -26.421875 "/></g></g></g><g fill="#f6f5f5" fill-opacity="1"><g transform="translate(182.459789, 72.293892)"><g><path d="M 18.34375 -20 C 18.34375 -18.414062 18.003906 -17.050781 17.328125 -15.90625 C 16.648438 -14.757812 15.539062 -13.925781 14 -13.40625 L 14 -13.328125 C 15.539062 -13.046875 16.738281 -12.375 17.59375 -11.3125 C 18.445312 -10.257812 18.875 -8.941406 18.875 -7.359375 L 18.875 0 L 17.21875 0 L 17.21875 -7.59375 C 17.21875 -9.101562 16.6875 -10.300781 15.625 -11.1875 C 14.570312 -12.082031 13.0625 -12.53125 11.09375 -12.53125 L 5.515625 -12.53125 L 5.515625 -13.890625 L 9.921875 -13.890625 C 12.117188 -13.890625 13.796875 -14.414062 14.953125 -15.46875 C 16.109375 -16.53125 16.6875 -17.992188 16.6875 -19.859375 C 16.6875 -20.691406 16.523438 -21.445312 16.203125 -22.125 C 15.890625 -22.800781 15.453125 -23.382812 14.890625 -23.875 C 14.328125 -24.363281 13.648438 -24.742188 12.859375 -25.015625 C 12.066406 -25.296875 11.203125 -25.4375 10.265625 -25.4375 C 8.222656 -25.4375 6.664062 -24.8125 5.59375 -23.5625 C 4.53125 -22.320312 4 -20.722656 4 -18.765625 L 4 0 L 2.421875 0 L 2.421875 -18.6875 C 2.421875 -19.84375 2.59375 -20.921875 2.9375 -21.921875 C 3.289062 -22.929688 3.804688 -23.800781 4.484375 -24.53125 C 5.171875 -25.257812 6 -25.832031 6.96875 -26.25 C 7.9375 -26.664062 9.035156 -26.875 10.265625 -26.875 C 11.503906 -26.875 12.617188 -26.703125 13.609375 -26.359375 C 14.597656 -26.023438 15.445312 -25.550781 16.15625 -24.9375 C 16.863281 -24.320312 17.40625 -23.59375 17.78125 -22.75 C 18.15625 -21.90625 18.34375 -20.988281 18.34375 -20 Z M 18.34375 -20 "/></g></g></g></svg>