<svg xmlns="http://www.w3.org/2000/svg" width="38" height="38" viewBox="0 0 38 38" fill="none"><path fill-rule="evenodd" clip-rule="evenodd" d="M19 0C15.2422 0 11.5687 1.11433 8.44416 3.20208C5.31963 5.28982 2.88435 8.25722 1.44629 11.729C0.00822105 15.2008 -0.368042 19.0211 0.365077 22.7067C1.0982 26.3924 2.90777 29.7778 5.56497 32.435C8.22217 35.0922 11.6076 36.9018 15.2933 37.6349C18.9789 38.368 22.7992 37.9918 26.271 36.5537C29.7428 35.1156 32.7102 32.6804 34.7979 29.5558C36.8857 26.4313 38 22.7578 38 19C38 13.9609 35.9982 9.12816 32.435 5.56497C28.8718 2.00178 24.0391 0 19 0ZM19 36.2968C15.579 36.2968 12.2349 35.2824 9.39042 33.3818C6.54597 31.4812 4.329 28.7798 3.01985 25.6192C1.71069 22.4586 1.36816 18.9808 2.03556 15.6256C2.70296 12.2703 4.35032 9.18832 6.76932 6.76932C9.18832 4.35032 12.2703 2.70296 15.6256 2.03556C18.9808 1.36816 22.4586 1.7107 25.6192 3.01985C28.7798 4.329 31.4812 6.54598 33.3818 9.39042C35.2824 12.2349 36.2968 15.579 36.2968 19C36.2969 21.2715 35.8496 23.5207 34.9803 25.6193C34.1111 27.7179 32.8371 29.6247 31.2309 31.2309C29.6247 32.8371 27.7179 34.1111 25.6193 34.9803C23.5207 35.8496 21.2715 36.2969 19 36.2968Z" fill="#292929"></path><path fill-rule="evenodd" clip-rule="evenodd" d="M15.2132 6.07731C17.6851 5.35845 20.3106 5.35845 22.7825 6.07731L19 14.4617L15.2132 6.07731Z" fill="#292929"></path><path fill-rule="evenodd" clip-rule="evenodd" d="M26.2265 7.63949C27.6428 8.54415 28.8784 9.70443 29.8702 11.0611L23.6619 24.8025L21.2659 19.4752H16.7305L14.3344 24.7967L8.1349 11.0488C9.126 9.69715 10.3595 8.54136 11.7728 7.64021L16.7305 18.6384H21.2869L26.2265 7.63949ZM5.99197 15.5155C5.19233 18.5147 5.45184 21.698 6.72672 24.5282C8.0016 27.3583 10.2138 29.662 12.99 31.0505L5.99197 15.5155Z" fill="#292929"></path><path fill-rule="evenodd" clip-rule="evenodd" d="M15.2761 31.9408C17.7089 32.6355 20.2875 32.6355 22.7203 31.9408L19.0007 23.6808L15.2761 31.9408ZM25.0093 31.0505C27.7806 29.6643 29.99 27.3661 31.2661 24.5425C32.5421 21.7188 32.8069 18.5418 32.016 15.5458L25.0093 31.0505Z" fill="#292929"></path></svg>