<?xml version="1.0" encoding="UTF-8"?> <svg xmlns="http://www.w3.org/2000/svg" width="18.138" height="13.992" viewBox="0 0 18.138 13.992"><g transform="translate(-0.035 -0.004)"><path d="M.064,12.353c.013.054.03.107.046.159a2.324,2.324,0,0,0,.168.4s0,0,0,0h0a1.988,1.988,0,0,0,1.736,1.076H16.122a1.988,1.988,0,0,0,1.736-1.076h0s0,0,0,0a2.351,2.351,0,0,0,.167-.4c.017-.053.034-.107.047-.161s.021-.1.03-.148a2.19,2.19,0,0,0,.035-.357v-9.7a2.131,2.131,0,0,0-.035-.366c-.008-.049-.018-.1-.029-.147s-.03-.109-.047-.163a2.305,2.305,0,0,0-.167-.4v0h0A1.988,1.988,0,0,0,16.122,0H9.069V7.534H0v4.305a2.178,2.178,0,0,0,.034.365C.043,12.254.053,12.3.064,12.353Z" transform="translate(0.035 0.004)" fill="#eee"></path><g transform="translate(0.035)"><path d="M8.789,1.076A1.988,1.988,0,0,0,7.053,0H0V1.076H8.789Z" transform="translate(9.069 0.004)" fill="#b22334"></path><path d="M0,1.076H18.137V0H0V1.076Z" transform="translate(0 10.767)" fill="#b22334"></path><rect width="9.069" height="1.076" transform="translate(9.069 6.462)" fill="#b22334"></rect><rect width="9.069" height="1.076" transform="translate(9.069 4.309)" fill="#b22334"></rect><rect width="18.137" height="1.076" transform="translate(0 8.614)" fill="#b22334"></rect><path d="M15.843,1.076A1.988,1.988,0,0,0,17.578,0H0A1.988,1.988,0,0,0,1.736,1.076Z" transform="translate(0.28 12.92)" fill="#b22334"></path><rect width="9.069" height="1.076" transform="translate(9.069 2.157)" fill="#b22334"></rect></g><g transform="translate(0 1.059)"><path d="M0,.365A.641.641,0,0,1,.164,0,.609.609,0,0,0,0,.365" transform="translate(0.098 0.732)" fill="#eee"></path><path d="M.086.048s0,0,0,.007Z" transform="translate(0.837 0.003)" fill="#eee"></path><path d="M0,.16A1.729,1.729,0,0,1,.167,0,1.8,1.8,0,0,0,0,.16" transform="translate(0.282 0.423)" fill="#eee"></path></g><path d="M9.069,0H2.015A2.087,2.087,0,0,0,0,2.153V7.534H9.069Z" transform="translate(0.035 0.004)" fill="#3c3b6e"></path><g transform="translate(1.027 1.059)"><path d="M0,.391.311.632l-.119.391L.5.781l.311.242L.7.632,1.007.391H.622L.5,0,.385.391Z" transform="translate(0.016 0.021)" fill="#fff"></path><path d="M0,.391.311.632l-.119.391L.5.781l.311.242L.7.632,1.007.391H.622L.5,0,.385.391Z" transform="translate(1.024 1.097)" fill="#fff"></path><path d="M0,.391.311.632l-.119.391L.5.781l.311.242L.7.632,1.007.391H.622L.5,0,.385.391Z" transform="translate(3.039 1.097)" fill="#fff"></path><path d="M0,.391.311.632l-.119.391L.5.781l.311.242L.7.632,1.007.391H.622L.5,0,.385.391Z" transform="translate(5.055 1.097)" fill="#fff"></path><path d="M0,.391.311.632l-.119.391L.5.781l.311.242L.7.632,1.007.391H.622L.5,0,.385.391Z" transform="translate(1.024 3.25)" fill="#fff"></path><path d="M0,.391.311.632l-.119.391L.5.781l.311.242L.7.632,1.007.391H.622L.5,0,.385.391Z" transform="translate(3.039 3.25)" fill="#fff"></path><path d="M0,.391.311.632l-.119.391L.5.781l.311.242L.7.632,1.007.391H.622L.5,0,.385.391Z" transform="translate(5.055 3.25)" fill="#fff"></path><path d="M0,.391.311.632l-.119.391L.5.781l.311.242L.7.632,1.007.391H.622L.5,0,.385.391Z" transform="translate(2.032 0.021)" fill="#fff"></path><path d="M0,.391.311.632l-.119.391L.5.781l.311.242L.7.632,1.007.391H.622L.5,0,.385.391Z" transform="translate(4.047 0.021)" fill="#fff"></path><path d="M0,.391.311.632l-.119.391L.5.781l.311.242L.7.632,1.007.391H.622L.5,0,.385.391Z" transform="translate(6.062 0.021)" fill="#fff"></path><path d="M0,.391.311.632l-.119.391L.5.781l.311.242L.7.632,1.007.391H.622L.5,0,.385.391Z" transform="translate(0.016 2.173)" fill="#fff"></path><path d="M.192,1.022.5.781l.311.242L.7.632,1.007.39H.622L.5,0,.384.39H0L.311.632Z" transform="translate(2.032 2.174)" fill="#fff"></path><path d="M0,.391.311.632l-.119.391L.5.781l.311.242L.7.632,1.007.391H.622L.5,0,.385.391Z" transform="translate(4.047 2.173)" fill="#fff"></path><path d="M0,.391.311.632l-.119.391L.5.781l.311.242L.7.632,1.007.391H.622L.5,0,.385.391Z" transform="translate(6.062 2.173)" fill="#fff"></path><path d="M0,.391.311.632l-.119.391L.5.781l.311.242L.7.632,1.007.391H.622L.5,0,.385.391Z" transform="translate(0.016 4.326)" fill="#fff"></path><path d="M.192,1.022.5.781l.311.242L.7.632,1.007.39H.622L.5,0,.384.39H0L.311.632Z" transform="translate(2.032 4.326)" fill="#fff"></path><path d="M0,.391.311.632l-.119.391L.5.781l.311.242L.7.632,1.007.391H.622L.5,0,.385.391Z" transform="translate(4.047 4.326)" fill="#fff"></path><path d="M0,.391.311.632l-.119.391L.5.781l.311.242L.7.632,1.007.391H.622L.5,0,.385.391Z" transform="translate(6.062 4.326)" fill="#fff"></path></g></g></svg> 