<svg xmlns="http://www.w3.org/2000/svg" width="86" height="49" viewBox="0 0 86 49" fill="none"><path d="M62.5938 36.3281C64.5234 36.3281 66.1562 34.8438 66.1562 32.7656C66.1562 30.8359 64.5234 29.2031 62.5938 29.2031C60.6641 29.2031 59.0312 30.8359 59.0312 32.7656C59.0312 34.8438 60.6641 36.3281 62.5938 36.3281ZM23.2578 36.3281C25.1875 36.3281 26.8203 34.8438 26.8203 32.7656C26.8203 30.8359 25.1875 29.2031 23.2578 29.2031C21.3281 29.2031 19.6953 30.8359 19.6953 32.7656C19.6953 34.8438 21.3281 36.3281 23.2578 36.3281ZM63.9297 14.9531C76.1016 21.6328 84.4141 33.9531 85.75 48.5H0.25C1.4375 33.9531 9.75 21.6328 21.9219 14.9531L14.7969 2.63281C14.6484 2.48438 14.6484 2.03906 14.6484 1.74219C14.6484 1 15.2422 0.257812 16.1328 0.257812C16.5781 0.257812 17.1719 0.703125 17.4688 1.14844L24.5938 13.6172C29.4922 11.3906 37.6562 9.75781 43 9.75781C48.1953 9.75781 56.3594 11.3906 61.2578 13.6172L68.3828 1.14844C68.6797 0.703125 69.2734 0.257812 69.7188 0.257812C70.6094 0.257812 71.2031 1 71.2031 1.74219C71.2031 2.03906 71.2031 2.48438 71.0547 2.63281L63.9297 14.9531Z" fill="#282828"></path></svg>