<svg xmlns="http://www.w3.org/2000/svg" width="68" height="81" viewBox="0 0 68 81" fill="none"><path d="M56.6406 42.8359C56.6406 43.1953 56.1016 53.7969 67.7812 59.3672C65.625 66.0156 58.0781 80.75 49.2734 80.75C44.2422 80.75 41.3672 77.5156 35.6172 77.5156C29.6875 77.5156 26.4531 80.75 21.9609 80.75C13.3359 81.1094 5.07031 64.9375 2.73438 58.2891C0.9375 53.2578 0.21875 48.4062 0.21875 43.7344C0.21875 27.7422 10.8203 20.0156 20.8828 19.8359C25.7344 19.8359 31.8438 23.25 34.5391 23.25C37.0547 23.25 44.0625 19.1172 50.5312 19.6562C57.1797 20.1953 62.2109 22.7109 65.625 27.5625C59.6953 31.3359 56.6406 36.1875 56.6406 42.8359ZM46.5781 13.3672C42.9844 17.5 38.6719 19.8359 34 19.4766C33.6406 14.625 35.4375 10.1328 38.6719 6.53906C41.5469 3.30469 46.5781 0.609375 50.8906 0.25C50.8906 2.22656 51.4297 7.61719 46.5781 13.3672Z" fill="#282828"></path></svg>