<svg xmlns="http://www.w3.org/2000/svg" width="60" height="80" viewBox="0 0 60 80" fill="none"><path d="M7.84169 42.071C7.84169 42.565 3.27758 61.3339 3.27758 61.4574C1.0572 70.4714 2.16739 75.7811 12.0357 78.1272C17.0933 79.362 22.5209 79.6089 27.8251 78.868C32.6359 78.1272 31.1557 74.7932 28.5652 74.4228C26.7149 74.1758 25.358 75.0402 22.2741 75.6576C23.631 75.0402 22.5209 75.5341 32.5126 69.6071C43.6144 62.9391 46.3282 62.8157 47.0684 62.4452C53.4828 60.4695 52.3726 58.9878 54.0996 54.0486C55.0864 51.2086 56.3199 47.9981 53.4828 46.1459C53.6061 45.652 53.6061 45.158 53.3594 44.6641C51.6325 39.8484 47.0684 36.391 43.4911 34.4153C37.9401 31.2048 34.9796 31.4518 28.8119 32.6866C26.8383 33.057 26.4682 33.057 24.7412 33.4275C26.7149 30.9579 27.9484 27.8709 28.1952 25.6482C29.0586 19.1038 33.8694 12.9298 32.8826 5.64448C32.5126 2.92792 31.0323 -0.406035 28.3185 0.334845C27.5784 0.581804 26.7149 1.07572 26.2215 1.56964C25.1113 2.68096 25.1113 2.92792 18.2035 17.9925C16.7232 7.24972 16.7232 5.521 14.8729 3.79228C13.1459 2.31052 9.81536 2.18704 8.82852 4.40968C7.59498 5.76796 7.34827 7.62016 7.47163 9.47236C7.47163 13.7942 7.84169 18.1159 8.45846 22.4377C7.84169 21.8203 7.22492 21.2029 6.60815 20.956C4.14106 19.4742 0.810495 20.5855 1.0572 23.5491C0.563787 25.1543 1.18056 25.7717 7.84169 42.071ZM36.9533 33.7979C41.6408 34.5388 49.6588 39.6015 51.6325 45.2815C52.0025 46.1459 50.8923 47.0102 49.7822 46.8868C45.8348 46.5163 43.4911 43.4293 40.1605 41.4536C34.2395 37.6258 31.279 42.4415 27.5784 41.5771C27.2083 41.4536 26.7149 41.7006 26.4682 42.1945C26.4682 43.7998 23.5077 46.5163 20.6705 47.3807C19.5604 47.7511 20.0538 49.4798 21.164 49.1094C22.2741 48.739 23.3843 48.245 24.4945 47.5042C25.1113 50.3442 27.455 53.4312 30.2922 54.666C33.4994 56.0243 37.3234 56.0243 40.5306 54.913C45.0947 53.3077 48.1786 49.4798 48.1786 48.492C49.7822 48.8624 51.2624 48.9859 52.496 47.8746C53.8529 48.9859 53.4828 50.2207 52.2492 53.5547C50.2756 59.2347 51.7558 59.1113 45.8348 60.9635C39.6671 62.9391 35.4731 65.6557 22.1508 73.6819C18.5735 75.7811 15.7364 74.7932 13.3926 74.4228C8.70517 73.8054 3.40094 71.5827 4.51112 66.8905C6.23809 59.8522 7.47163 52.9373 9.4453 45.8989C9.93871 44.1702 11.9124 41.3302 13.516 39.7249C14.8729 38.3667 16.9699 37.5023 18.6969 37.0084C22.5209 35.7736 33.006 33.1805 36.9533 33.7979ZM30.4155 52.4434C29.4287 51.2086 27.085 47.9981 27.5784 46.5163C28.0718 44.9111 33.9928 41.5771 36.0898 41.7006C39.5438 41.9476 42.3809 46.1459 46.5749 47.8746C44.848 50.3442 42.8743 52.0729 39.9138 53.0608C36.5832 54.2956 32.7593 53.9251 30.4155 52.4434ZM31.279 6.01492C32.2658 12.6828 27.455 18.7333 26.5915 25.5247C26.2215 28.1178 24.3712 32.0692 21.7807 34.0449C21.6574 34.1683 21.6574 34.1683 21.534 34.2918C18.4502 35.1562 14.7495 36.144 12.5292 38.2432C14.9962 32.1927 27.3317 3.6688 28.1952 2.80444C28.5652 2.434 29.0586 2.06356 29.4287 2.18704C30.2922 2.434 31.0323 4.40968 31.279 6.01492ZM17.0933 21.2029C15.3663 24.9073 13.7627 28.7352 12.2824 32.5631C9.93871 21.4499 10.4321 5.89144 10.9255 5.27404C11.419 4.53316 13.2693 4.65664 14.0094 5.39752C15.3663 6.63232 15.1196 8.11408 17.0933 21.2029ZM5.86802 22.5612C6.85486 23.1786 8.45846 24.9073 8.95188 25.8952C9.07523 26.0187 9.07523 26.1421 9.19859 26.1421C9.81536 29.3526 9.93871 31.5753 11.0489 35.6501C10.6788 36.8849 10.3088 37.9962 9.93871 39.231C7.71834 34.4153 5.62131 29.5996 3.52429 24.7839C3.03087 23.6725 3.03087 23.0551 3.27758 22.6847C3.771 22.1908 5.00454 22.0673 5.86802 22.5612Z" fill="black"></path><path d="M45.2175 31.3283C45.711 29.1056 45.8343 26.883 45.711 24.6604C45.5876 23.4256 43.8606 23.5491 43.8606 24.7839C43.984 26.883 43.8606 28.9822 43.3672 31.0813C43.2439 32.1926 45.0942 32.5631 45.2175 31.3283Z" fill="black"></path><path d="M49.2887 33.4275L52.2492 29.1057C52.9894 28.1179 51.3857 27.0066 50.769 28.1179L47.8085 32.4397C47.0684 33.4275 48.672 34.4154 49.2887 33.4275Z" fill="black"></path><path d="M52.1263 37.3788C53.1132 37.3788 56.9372 35.4032 58.6641 34.2918C59.651 33.551 58.6641 32.0692 57.6773 32.8101C55.827 34.0449 53.9767 34.9092 51.8796 35.6501C50.7695 35.8971 51.0162 37.3788 52.1263 37.3788Z" fill="black"></path></svg>